<svg width="13" height="15" viewBox="0 0 13 15" fill="none" xmlns="http://www.w3.org/2000/svg">
<path fill-rule="evenodd" clip-rule="evenodd" d="M1.85166 5.09302C1.98871 2.53047 3.97284 0.417969 6.50001 0.417969C9.02717 0.417969 11.0113 2.53047 11.1483 5.09302C11.8972 5.52138 12.4573 6.23353 12.7256 7.07563C12.8481 7.46041 12.8799 7.86432 12.8744 8.32251C12.8691 8.77044 12.8265 9.32126 12.7732 10.0093L12.76 10.1803C12.677 11.2585 12.6209 11.9867 12.3507 12.5813C11.9909 13.373 11.361 14.0045 10.5725 14.3357C10.242 14.4745 9.89881 14.5317 9.51823 14.5587C9.15113 14.5846 8.70361 14.5846 8.15652 14.5846H4.84349C4.2964 14.5846 3.84889 14.5846 3.48178 14.5587C3.1012 14.5317 2.75799 14.4745 2.42748 14.3357C1.63898 14.0045 1.00913 13.373 0.649344 12.5813C0.379099 11.9867 0.323025 11.2585 0.240002 10.1803L0.226814 10.0094C0.173552 9.32134 0.130909 8.77047 0.125579 8.32252C0.120128 7.86432 0.151892 7.46041 0.274449 7.07563C0.542664 6.23353 1.10286 5.52138 1.85166 5.09302ZM3.31981 4.69593C3.34998 4.69388 3.38037 4.69199 3.41098 4.69024C3.80236 4.66796 4.27679 4.66797 4.84908 4.66797H8.15094C8.72322 4.66797 9.19766 4.66796 9.58903 4.69024C9.61964 4.69199 9.65003 4.69388 9.6802 4.69593C9.38675 3.03318 8.03785 1.83464 6.50001 1.83464C4.96216 1.83464 3.61326 3.03318 3.31981 4.69593ZM6.50009 7.5013C5.69719 7.5013 5.13383 8.18571 5.13383 8.91797C5.13383 9.40723 5.38534 9.87514 5.79176 10.1318V11.043C5.79176 11.4342 6.10889 11.7513 6.50009 11.7513C6.89129 11.7513 7.20843 11.4342 7.20843 11.043V10.1318C7.61485 9.87514 7.86635 9.40723 7.86635 8.91797C7.86635 8.18571 7.30299 7.5013 6.50009 7.5013Z" fill="#C0C0C0"/>
</svg>
