<svg width="400" height="400" viewBox="0 0 400 400" fill="none" xmlns="http://www.w3.org/2000/svg">
<path d="M104.047 325.41C-2.9495 186.268 94.5579 66.4798 178.668 34.2333C185.876 31.4696 193.546 30.348 201.26 30.0474C218.824 29.3632 236.514 33.3852 250.868 43.5285C366.495 125.232 351.415 246.871 323.029 312.692C318.25 323.772 311.334 333.863 302.163 341.705C248.958 387.203 179.643 372.631 137.537 352.99C124.263 346.799 112.975 337.021 104.047 325.41Z" fill="#1C252E"/>
<path fill-rule="evenodd" clip-rule="evenodd" d="M89 303.5C67.6667 252 52.0004 126.9 156 62.4996C178.167 47.9996 236 26.8998 270 58.4998C271.346 59.7508 272.569 60.7803 273.674 61.6001C266.709 55.3959 259.122 49.3603 250.868 43.5282C236.514 33.385 218.824 29.363 201.26 30.0472C193.546 30.3478 185.876 31.4694 178.668 34.2331C99.0103 64.7726 7.33615 173.831 88.742 303.486L89 303.5Z" fill="#2F3C44" fill-opacity="0.29"/>
<path fill-rule="evenodd" clip-rule="evenodd" d="M89 303.5C67.6667 252 52.0004 126.9 156 62.4996C178.167 47.9996 236 26.8998 270 58.4998C271.346 59.7508 272.569 60.7803 273.674 61.6001C266.709 55.3959 259.122 49.3603 250.868 43.5282C236.514 33.385 218.824 29.363 201.26 30.0472C193.546 30.3478 185.876 31.4694 178.668 34.2331C99.0103 64.7726 7.33615 173.831 88.742 303.486L89 303.5Z" fill="url(#paint0_linear_2002_379)" fill-opacity="0.1" style="mix-blend-mode:lighten"/>
<path fill-rule="evenodd" clip-rule="evenodd" d="M160.531 119.807L170.293 133.323C170.762 133.972 171.01 134.753 171.001 135.553L169.194 305.411C169.164 308.244 170.959 310.774 173.642 311.682L190.895 317.522C195.14 318.959 199.541 315.802 199.541 311.32V248.969C199.541 248.063 200.701 247.687 201.233 248.419L249.653 315.048C252.052 318.349 256.853 318.675 259.676 315.729L271.692 303.19C274.01 300.772 274.128 296.994 271.967 294.435L210.293 221.434C208.531 219.348 208.922 216.204 211.141 214.614L256.177 182.344C261.631 178.436 262.461 170.648 257.952 165.679L203.182 105.312C202.64 104.715 201.92 104.308 201.128 104.154L185.497 101.104C184.011 100.814 182.472 101.136 181.228 101.998L161.209 115.857C159.917 116.751 159.611 118.533 160.531 119.807ZM193.835 147.294L195.29 188.75C195.419 192.429 199.551 194.523 202.595 192.452L228.777 174.633C231.326 172.899 231.528 169.217 229.186 167.213L201.548 143.576C198.455 140.93 193.692 143.226 193.835 147.294Z" fill="#E2E7FB"/>
<g style="mix-blend-mode:soft-light" opacity="0.4">
<path d="M283.504 112.133C284.95 120.977 249.215 118.359 223.002 127.053C200.635 134.471 185.167 158.653 162.573 165.35C115.656 179.259 104.023 152.689 102.238 141.769C165.783 92.6466 145.91 79.7198 196.504 66.8742C204.702 64.7926 212.502 60.9228 220.763 59.1036C254.282 51.7219 281.568 100.294 283.504 112.133Z" fill="#F8FAFB" fill-opacity="0.58"/>
</g>
<defs>
<linearGradient id="paint0_linear_2002_379" x1="165" y1="53" x2="46.5" y2="181.5" gradientUnits="userSpaceOnUse">
<stop stop-color="#CED8DF" stop-opacity="0.23"/>
<stop offset="1" stop-color="#2F3C44" stop-opacity="0"/>
</linearGradient>
</defs>
</svg>
